<?xml version="1.0" encoding="UTF-8" standalone="no"?>
<svg
   xmlns:dc="http://purl.org/dc/elements/1.1/"
   xmlns:cc="http://creativecommons.org/ns#"
   xmlns:rdf="http://www.w3.org/1999/02/22-rdf-syntax-ns#"
   xmlns:svg="http://www.w3.org/2000/svg"
   xmlns="http://www.w3.org/2000/svg"
   xmlns:sodipodi="http://sodipodi.sourceforge.net/DTD/sodipodi-0.dtd"
   xmlns:inkscape="http://www.inkscape.org/namespaces/inkscape"
   version="1.1"
   id="Capa_1"
   x="0px"
   y="0px"
   viewBox="0 0 142.50001 80.15625"
   xml:space="preserve"
   width="1280"
   height="720"
   sodipodi:docname="fast-forward.svg"
   inkscape:version="0.92.1 r15371"><metadata
     id="metadata39"><rdf:RDF><cc:Work
         rdf:about=""><dc:format>image/svg+xml</dc:format><dc:type
           rdf:resource="http://purl.org/dc/dcmitype/StillImage" /><dc:title></dc:title></cc:Work></rdf:RDF></metadata><defs
     id="defs37" /><sodipodi:namedview
     pagecolor="#ffffff"
     bordercolor="#666666"
     borderopacity="1"
     objecttolerance="10"
     gridtolerance="10"
     guidetolerance="10"
     inkscape:pageopacity="0"
     inkscape:pageshadow="2"
     inkscape:window-width="640"
     inkscape:window-height="480"
     id="namedview35"
     showgrid="false"
     inkscape:zoom="0.4609375"
     inkscape:cx="264.67797"
     inkscape:cy="247.32203"
     inkscape:current-layer="Capa_1" /><path
     d="m 99.325003,39.260989 -27.000001,-19 c -0.306,-0.216 -0.703,-0.242 -1.036,-0.07 -0.331,0.171 -0.539,0.514 -0.539,0.887 v 17.777 l -26.425,-18.583 c -0.305,-0.213 -0.703,-0.241 -1.036,-0.069 -0.331,0.172 -0.539,0.515 -0.539,0.888 v 37.975 c 0,0.373 0.208,0.716 0.539,0.888 0.146,0.074 0.304,0.111 0.461,0.111 0.202,0 0.403,-0.062 0.575,-0.182 l 26.425,-18.582 v 17.777 c 0,0.373 0.208,0.716 0.539,0.888 0.146,0.075 0.304,0.112 0.461,0.112 0.202,0 0.404,-0.062 0.575,-0.183 l 27.000001,-19 c 0.267,-0.186 0.425,-0.492 0.425,-0.817 0,-0.325 -0.158,-0.631 -0.425,-0.817 z"
     id="path2"
     inkscape:connector-curvature="0"
     style="fill:#a3a9ad" /><g
     id="g4"
     transform="translate(0,23.15625)" /><g
     id="g6"
     transform="translate(0,23.15625)" /><g
     id="g8"
     transform="translate(0,23.15625)" /><g
     id="g10"
     transform="translate(0,23.15625)" /><g
     id="g12"
     transform="translate(0,23.15625)" /><g
     id="g14"
     transform="translate(0,23.15625)" /><g
     id="g16"
     transform="translate(0,23.15625)" /><g
     id="g18"
     transform="translate(0,23.15625)" /><g
     id="g20"
     transform="translate(0,23.15625)" /><g
     id="g22"
     transform="translate(0,23.15625)" /><g
     id="g24"
     transform="translate(0,23.15625)" /><g
     id="g26"
     transform="translate(0,23.15625)" /><g
     id="g28"
     transform="translate(0,23.15625)" /><g
     id="g30"
     transform="translate(0,23.15625)" /><g
     id="g32"
     transform="translate(0,23.15625)" /></svg>
